<?xml version="1.0" encoding="utf-8"?>
<!-- Generator: Adobe Illustrator 24.0.2, SVG Export Plug-In . SVG Version: 6.00 Build 0)  -->
<svg version="1.1" id="Layer_1" xmlns="http://www.w3.org/2000/svg" xmlns:xlink="http://www.w3.org/1999/xlink" x="0px" y="0px"
	 viewBox="0 0 512 512" style="enable-background:new 0 0 512 512;" xml:space="preserve">
<style type="text/css">
	.st0{fill:#F0C419;stroke:#2D2D2D;stroke-width:4;stroke-miterlimit:10;}
	.st1{fill:#F29C1F;stroke:#2D2D2D;stroke-width:4;stroke-miterlimit:10;}
	.st2{fill:#F5EFCA;stroke:#2D2D2D;stroke-width:4;stroke-miterlimit:10;}
	.st3{fill:#A56A43;stroke:#2D2D2D;stroke-width:4;stroke-miterlimit:10;}
	.st4{fill:#14A085;stroke:#2D2D2D;stroke-width:4;stroke-miterlimit:10;}
	.st5{fill:#26B99A;stroke:#2D2D2D;stroke-width:4;stroke-miterlimit:10;}
</style>
<g id="Page-1">
	<g id="_x30_21---Fertiliser">
		<path id="Shape" class="st0" d="M446.7,428.5c14.4,24.7,14.2,59.7-4.1,59.7c-13.6-0.4-27-3.8-39.2-9.9c-6.6-3.2-12.6-7.3-18-12.3
			h-0.1V466c-39.6,8.9-80,13.6-120.6,14.3c-40.6-0.6-81-5.4-120.6-14.3c-5.4,5-11.5,9.2-18.1,12.3c-12.2,6.1-25.5,9.5-39.2,9.9
			c-18.3,0-18.5-35.2-4-59.9c3.4-6.1,8-11.5,13.5-15.9c-9.3-51.7-14.6-104-15.8-156.5c1.2-52.5,6.5-104.8,15.8-156.5
			c-5.4-4.4-10-9.8-13.5-15.9c-14.5-24.7-14.3-59.9,4-59.9c13.6,0.4,26.9,3.8,39.1,9.8c6.6,3.2,12.8,7.4,18.2,12.4
			c39.6-8.9,80-13.6,120.6-14.3c40.6,0.6,81,5.4,120.6,14.3l0.1-0.1c5.4-5,11.5-9.1,18.1-12.3h0.1c12.1-6.1,25.4-9.5,39-9.9
			c18.3,0,18.5,34.9,4.1,59.7v0.1c-3.4,6.1-8,11.5-13.5,15.9l-0.1,0.1c9.3,51.7,14.6,104,15.8,156.5c-1.2,52.5-6.5,104.8-15.8,156.5
			l0.1,0.1C438.7,417,443.3,422.4,446.7,428.5L446.7,428.5z"/>
		<g>
			<path id="Shape_1_" class="st1" d="M446.7,83.5L446.7,83.5c-3.4,6.2-8,11.6-13.5,16c-1.6-8.9-3-16.8-4.2-23.3
				c-0.8-4.4,2-8.6,6.4-9.4s8.6,2,9.4,6.4C445.4,76.3,446,79.7,446.7,83.5z"/>
			<path id="Shape_2_" class="st1" d="M415.1,44.7c-0.5,2.1-1.8,3.8-3.6,5s-4,1.5-6,1c-5.6-1.4-12.2-2.9-19.5-4.5
				c-0.2,0-0.3-0.1-0.5-0.2c5.4-5,11.5-9.1,18.1-12.3h0.1c2,0.5,3.8,0.9,5.6,1.4C413.5,36.2,416.1,40.5,415.1,44.7L415.1,44.7z"/>
			<path id="Shape_3_" class="st1" d="M144.2,46.1c-17.5,3.6-18.4,4.4-20.6,4.4c-4-0.1-7.4-3.1-7.9-7.1s2.1-7.7,6-8.7
				c1.4-0.3,2.8-0.6,4.2-1C132.6,36.9,138.7,41.1,144.2,46.1z"/>
			<path id="Shape_4_" class="st1" d="M100.8,75.2c-3,15.8-4.2,23.6-4.4,24.4c-5.4-4.4-10-9.8-13.5-15.9c0.8-4.2,1.5-8.1,2.2-11.6
				c0.4-2.9,2.4-5.4,5.2-6.5s5.9-0.4,8.1,1.6C100.6,69.2,101.5,72.3,100.8,75.2z"/>
			<path id="Shape_5_" class="st1" d="M448.9,256.1c-0.8,43.6-4.6,87.1-11.5,130.1c-54.2,24.8-113.1,37.7-172.6,38
				c-59.6-0.3-118.4-13.3-172.6-38c-6.9-43.1-10.7-86.5-11.5-130.1c0.8-43.6,4.6-87.1,11.5-130.1c54.2-24.8,113.1-37.7,172.6-38
				c59.6,0.3,118.4,13.3,172.6,38C444.3,169,448.2,212.5,448.9,256.1z"/>
			<path id="Shape_6_" class="st1" d="M144.2,466c-5.4,5-11.5,9.2-18.1,12.3c-2.2-0.5-4.2-1-6.2-1.4c-2.9-0.5-5.3-2.6-6.2-5.5
				c-0.9-2.8-0.1-5.9,2-8.1c2.1-2.1,5.2-2.9,8-2C141.5,465.5,141.1,465.3,144.2,466z"/>
			<path id="Shape_7_" class="st1" d="M409.9,476.8c-2,0.5-4.2,1-6.5,1.6c-6.6-3.2-12.6-7.3-18-12.3c0.4-0.2,15.2-3.5,20.7-4.9
				c4.3-1,8.6,1.6,9.7,5.9C416.9,471.4,414.2,475.7,409.9,476.8L409.9,476.8z"/>
			<path id="Shape_8_" class="st1" d="M446.7,428.5c-0.8,4-1.4,7.7-2.1,11.1c-0.4,2.9-2.4,5.4-5.2,6.5c-2.8,1-5.9,0.4-8.1-1.6
				c-2.2-2-3.1-5-2.4-7.9c1.2-6.6,2.6-14.7,4.2-23.8c0-0.1,0-0.1,0.1-0.2C438.7,417,443.3,422.4,446.7,428.5L446.7,428.5z"/>
			<path id="Shape_9_" class="st1" d="M100.8,436.8c0.7,2.9-0.2,5.9-2.4,7.9c-2.2,2-5.3,2.6-8.1,1.6s-4.8-3.5-5.2-6.5
				c-0.6-3.4-1.4-7.3-2.2-11.5c3.4-6.1,8-11.5,13.5-15.9c0.1,0.2,0.1,0.4,0.2,0.6C98,422.1,99.5,430.2,100.8,436.8L100.8,436.8z"/>
		</g>
		<circle id="Oval" class="st2" cx="264.8" cy="256.1" r="112.1"/>
		<path id="Shape_10_" class="st3" d="M349.3,329.6c-21.3,24.5-52.1,38.6-84.6,38.6s-63.3-14.1-84.6-38.6
			c5.5-10.7,16.5-17.5,28.5-17.5c7.2,0,14.3,2.5,19.9,7.1c6.5-14.1,20.7-23.1,36.2-23.1c15.5,0,29.7,9,36.2,23.1
			c5.6-4.6,12.6-7.1,19.9-7.1C332.8,312.1,343.9,318.8,349.3,329.6z"/>
		<path id="Shape_11_" class="st4" d="M264.8,328.1c-2.7,0-5.2-1.4-6.7-3.7c-1.5-2.3-1.7-5.2-0.6-7.6c9.4-23.6,9.4-49.9,0-73.5
			c-1.8-4,0-8.7,4.1-10.5c4-1.8,8.7,0,10.6,4c11.4,27.8,11.4,58.9,0,86.6C270.8,326.3,267.9,328.1,264.8,328.1z"/>
		<path id="Shape_12_" class="st5" d="M264.8,240c-0.5,1.9-1.6,3.6-3.1,4.9c-7.4,5.5-21.1,13.9-33.7,10.7
			c-12.7-3.1-20.9-17-24.8-25.2c-1.7-3.8-0.6-8.2,2.6-10.7c7.3-5.4,21.1-13.9,33.7-10.7c10.3,3.8,18.7,11.7,23.1,21.8L264.8,240z"/>
		<path id="Shape_13_" class="st5" d="M264.8,240c1.3,1.5,3.1,2.6,5,2.9c9,1.6,25.1,2.7,34.9-5.8c9.8-8.6,10.8-24.7,10.5-33.8
			c-0.2-4.1-3.2-7.5-7.2-8.2c-9-1.6-25.1-2.7-34.9,5.8c-7.4,8.2-11.2,19-10.6,29.9L264.8,240z"/>
	</g>
</g>
</svg>
