<?xml version="1.0" encoding="utf-8"?>
<!-- Generator: Adobe Illustrator 24.1.1, SVG Export Plug-In . SVG Version: 6.00 Build 0)  -->
<svg version="1.1" id="Capa_1" xmlns="http://www.w3.org/2000/svg" xmlns:xlink="http://www.w3.org/1999/xlink" x="0px" y="0px"
	 viewBox="0 0 1242 2208" style="enable-background:new 0 0 1242 2208;" xml:space="preserve">
<style type="text/css">
	.Blanco_x0020_y_x0020_negro{fill:#0B0C0C;stroke:#231F20;}
	.st0{fill:#F7931E;stroke:#F7931E;stroke-width:16;stroke-miterlimit:1;}
	.st1{fill:#F7931E;stroke:#000000;stroke-width:0.25;stroke-miterlimit:1;}
	.st2{fill:#FFD6A5;stroke:#FFFFFF;stroke-width:0.25;stroke-miterlimit:1;}
	.st3{fill:#F7931E;}
	.st4{fill:none;stroke:#231F20;}
	.st5{fill:url(#SVGID_1_);}
	.st6{fill:url(#SVGID_2_);}
	.st7{fill:none;stroke:#000000;}
	.st8{fill:url(#SVGID_3_);}
	.st9{fill:#0B0C0C;}
	.st10{fill:#BE663E;stroke:#8C6239;stroke-width:0.3629;stroke-miterlimit:1;}
	.st11{fill:#BE663E;stroke:#A67C52;stroke-width:0.3629;stroke-miterlimit:1;}
	.st12{fill:none;stroke:#000000;stroke-width:3;stroke-miterlimit:1;}
	.st13{fill:#FBB03B;stroke:#231F20;}
	.st14{fill:#F7931E;stroke:#F7931E;stroke-width:0.25;stroke-miterlimit:1;}
	.st15{fill:#FFFFFF;}
	.st16{fill:#BF8E5E;}
	.st17{fill:none;stroke:#F7931E;stroke-width:18;stroke-miterlimit:1;}
	.st18{fill:none;stroke:#F7931E;stroke-width:16;stroke-miterlimit:1;}
	.st19{fill:#FBB03B;}
	.st20{fill:#BB6F17;}
	.st21{fill:#B96E16;}
</style>
<path class="st0" d="M831.3,1180.9c2.8-0.9-32.1,14.5-33.6-122.2c-1.5-136.6,12.4-129.9,27.9-129.9c15.5,0,28.2-6.8,28.2,129.9
	S815.9,1186.1,831.3,1180.9z"/>
<path class="st0" d="M528.3,1195.9c2.8-0.9-32.1,14.5-33.6-122.2c-1.5-136.6,12.4-129.9,27.9-129.9c15.5,0,28.2-6.8,28.2,129.9
	S512.9,1201.1,528.3,1195.9z"/>
<path class="st1" d="M978.1,970.2c-0.1-1,0.2-2,0.6-2.9c0-0.6,0.1-1.3,0.3-1.9c-0.1-0.4-0.2-0.9-0.2-1.3v-1.3c0-0.4,0.1-0.8,0.2-1.2
	c0-0.4,0-0.7,0.1-1.1c-0.2-1.1-0.1-2.2,0.4-3.2v-1.9c0-0.1,0-0.2,0-0.3c0-0.2,0-0.4,0-0.6c0-0.7,0.1-1.4,0.2-2.1
	c0.1-0.3,0.2-0.6,0.3-0.8c0-0.1,0-0.2,0-0.4c0-0.1,0-0.1,0-0.2c-0.1-0.4-0.2-0.9-0.2-1.3v-0.3c0-0.2,0-0.4,0-0.6c0-0.2,0-0.5,0-0.7
	v-0.3c0-0.3,0-0.6,0.1-1c-0.2-0.7-0.3-1.4-0.2-2.2c0-0.6,0-1.1,0.1-1.7c-0.3-1.1-0.2-2.2,0.2-3.2c-0.6-1.2-0.8-2.6-0.5-3.9
	c-0.1-0.6-0.2-1.2-0.1-1.8C966.6,869.2,878.8,819,702,819c-237.3,0-280,59.1-280,132s86.6,137,278.5,137
	c173.1,0,262-52.2,277.8-115.9C978.1,971.5,978,970.9,978.1,970.2z"/>
<path class="st2" d="M978.1,970c0-0.9,0.2-1.9,0.6-2.7c0-0.6,0.1-1.3,0.3-1.9c-0.1-0.4-0.2-0.9-0.2-1.3v-1.3c0-0.4,0.1-0.8,0.2-1.2
	c0-0.4,0-0.7,0.1-1.1c-0.2-1.1-0.1-2.2,0.4-3.2v-1.9c0-0.1,0-0.2,0-0.3c0-0.2,0-0.4,0-0.6c0-0.7,0.1-1.4,0.2-2.1
	c0.1-0.3,0.2-0.6,0.3-0.8c0-0.1,0-0.2,0-0.4c0-0.1,0-0.1,0-0.2c-0.1-0.4-0.2-0.9-0.2-1.3v-0.3c0-0.2,0-0.4,0-0.6c0-0.2,0-0.5,0-0.7
	v-0.3c0-0.3,0-0.6,0.1-1c-0.2-0.7-0.3-1.4-0.2-2.2c0-0.6,0-1.1,0.1-1.7c-0.3-1.1-0.2-2.2,0.2-3.2c-0.6-1.2-0.8-2.6-0.5-3.9
	c-0.1-0.4-0.2-0.9-0.2-1.3C972.9,950.7,942,1041.7,800,1054c-252.7,21.8-386.2-164.3-378.1-103c9.6,72.3,86.6,137,278.5,137
	c173.2,0,262.1-52.2,277.8-116C978.1,971.4,978,970.7,978.1,970z"/>
<g>
	
		<image style="overflow:visible;opacity:0.3;" width="113" height="138" xlink:href="87BC09ED.png"  transform="matrix(1 0 0 1 528 667)">
	</image>
	<g>
		<ellipse transform="matrix(0.5 -0.866 0.866 0.5 -345.1447 874.1917)" class="st3" cx="584.5" cy="736" rx="61" ry="36.5"/>
		<ellipse transform="matrix(0.5 -0.866 0.866 0.5 -345.1447 874.1917)" class="st4" cx="584.5" cy="736" rx="61" ry="36.5"/>
	</g>
</g>
<g>
	
		<image style="overflow:visible;opacity:0.3;" width="77" height="92" xlink:href="87BC09EF.png"  transform="matrix(1 0 0 1 546 690)">
	</image>
	<g>
		<linearGradient id="SVGID_1_" gradientUnits="userSpaceOnUse" x1="558.9932" y1="736.2488" x2="610.3589" y2="736.2488">
			<stop  offset="0" style="stop-color:#D7B519"/>
			<stop  offset="0.618" style="stop-color:#DAC33B"/>
			<stop  offset="0.6292" style="stop-color:#DAC43C"/>
			<stop  offset="0.9831" style="stop-color:#D9C039"/>
		</linearGradient>
		<path class="st5" d="M603,746.8c-9.9,17.2-26.2,26.4-36.3,20.6c-10.1-5.8-10.3-24.5-0.3-41.8c9.9-17.2,26.2-26.4,36.3-20.6
			S612.9,729.6,603,746.8z"/>
		<ellipse transform="matrix(0.5 -0.866 0.866 0.5 -345.2722 874.4685)" class="st4" cx="584.7" cy="736.2" rx="36" ry="21.2"/>
	</g>
</g>
<g>
	
		<image style="overflow:visible;opacity:0.3;" width="113" height="137" xlink:href="87BC09EA.png"  transform="matrix(1 0 0 1 341 658)">
	</image>
	<g>
		<ellipse transform="matrix(0.866 -0.5 0.5 0.866 -310.0379 296.0738)" class="st3" cx="397.5" cy="726.6" rx="36.5" ry="61"/>
		<ellipse transform="matrix(0.866 -0.5 0.5 0.866 -310.0379 296.0738)" class="st4" cx="397.5" cy="726.6" rx="36.5" ry="61"/>
	</g>
</g>
<g>
	
		<image style="overflow:visible;opacity:0.3;" width="77" height="92" xlink:href="87BC09EB.png"  transform="matrix(1 0 0 1 358 682)">
	</image>
	<g>
		<linearGradient id="SVGID_2_" gradientUnits="userSpaceOnUse" x1="370.7792" y1="727.5753" x2="422.1448" y2="727.5753">
			<stop  offset="0" style="stop-color:#D7B519"/>
			<stop  offset="0.618" style="stop-color:#DAC33B"/>
			<stop  offset="0.6292" style="stop-color:#DAC43C"/>
			<stop  offset="0.9831" style="stop-color:#D9C039"/>
		</linearGradient>
		<path class="st6" d="M378.1,738.2c9.9,17.2,26.2,26.4,36.3,20.6c10.1-5.8,10.3-24.5,0.3-41.8c-9.9-17.2-26.2-26.4-36.3-20.6
			C368.3,702.2,368.2,720.9,378.1,738.2z"/>
		<ellipse transform="matrix(0.866 -0.5 0.5 0.866 -310.6719 295.7078)" class="st4" cx="396.5" cy="727.6" rx="21.2" ry="36"/>
	</g>
</g>
<g id="XMLID_1_">
	
		<image style="overflow:visible;opacity:0.3;" width="327" height="259" xlink:href="87BC09F5.png"  transform="matrix(1 0 0 1 319 698)">
	</image>
	<g>
		<path class="st3" d="M633,809.3c0-68.7-67.2-97.8-150.3-97.8s-150.8,29.1-150.8,97.8S399.3,944,482.5,944S633,878,633,809.3z"/>
		<path class="st7" d="M633,809.3c0-68.7-67.2-97.8-150.3-97.8s-150.8,29.1-150.8,97.8S399.3,944,482.5,944S633,878,633,809.3z"/>
	</g>
</g>
<g>
	
		<image style="overflow:visible;opacity:0.3;" width="78" height="135" xlink:href="87BC09F7.png"  transform="matrix(1 0 0 1 445 739)">
	</image>
	<g>
		<linearGradient id="SVGID_3_" gradientUnits="userSpaceOnUse" x1="458" y1="806.5" x2="510" y2="806.5">
			<stop  offset="0" style="stop-color:#D7B519"/>
			<stop  offset="0.618" style="stop-color:#DAC33B"/>
			<stop  offset="0.6292" style="stop-color:#DAC43C"/>
			<stop  offset="0.9831" style="stop-color:#D9C039"/>
		</linearGradient>
		<path class="st8" d="M510,829.6c0,27.6-11.5,31.4-25.9,31.4s-26.1-3.8-26.1-31.4c0-27.6,11.8-77.6,26.1-77.6S510,802,510,829.6z"
			/>
		<path class="st4" d="M510,829.6c0,27.6-11.5,31.4-25.9,31.4s-26.1-3.8-26.1-31.4c0-27.6,11.8-77.6,26.1-77.6S510,802,510,829.6z"
			/>
	</g>
</g>
<g>
	
		<image style="overflow:visible;opacity:0.3;" width="92" height="59" xlink:href="87BC09FA.png"  transform="matrix(1 0 0 1 437 831)">
	</image>
	<g>
		<path class="st9" d="M515.9,855.7c-1,11.9-9.5,21.7-33.1,21.7S450,862.7,450,850.8s9.5-4.9,33.1-5.6
			C506.9,844.6,517.3,838.9,515.9,855.7z"/>
		<path class="st4" d="M515.9,855.7c-1,11.9-9.5,21.7-33.1,21.7S450,862.7,450,850.8s9.5-4.9,33.1-5.6
			C506.9,844.6,517.3,838.9,515.9,855.7z"/>
	</g>
</g>
<g>
	
		<image style="overflow:visible;opacity:0.3;" width="54" height="54" xlink:href="87BC09FB.png"  transform="matrix(1 0 0 1 410 768)">
	</image>
	<g>
		<circle class="st9" cx="437" cy="795" r="14"/>
		<circle class="st4" cx="437" cy="795" r="14"/>
	</g>
</g>
<g>
	
		<image style="overflow:visible;opacity:0.3;" width="54" height="54" xlink:href="87BC09FD.png"  transform="matrix(1 0 0 1 503 768)">
	</image>
	<g>
		<circle class="st9" cx="530" cy="795" r="14"/>
		<circle class="st4" cx="530" cy="795" r="14"/>
	</g>
</g>
<circle class="st10" cx="375.5" cy="788.5" r="9.5"/>
<circle class="st10" cx="584.5" cy="837.5" r="9.5"/>
<circle class="st10" cx="375.5" cy="867.5" r="9.5"/>
<path class="st11" d="M462.5,760c1,2.9-0.3,5.9-31.9,17.4c-31.6,11.5-31.7,8.9-32.7,6s-2.7-4.9,28.9-16.4S461.5,757.1,462.5,760z"/>
<path class="st12" d="M482.5,877c-0.1,5.6,0.3,10.3,1.2,14.1c5.7,26.9,30.7,13.9,30.7,13.9"/>
<path class="st12" d="M482.9,876.9c0.1,5.6-0.3,10.3-1.2,14.1c-5.7,26.9-30.7,13.9-30.7,13.9"/>
<path class="st10" d="M515.8,759.9c-1,2.9,0.3,5.9,31.9,17.4c31.6,11.5,31.7,8.9,32.7,6s2.7-4.9-28.9-16.4
	C519.8,755.5,516.8,757.1,515.8,759.9z"/>
<ellipse class="st10" cx="465.5" cy="728.5" rx="16.5" ry="10.5"/>
<circle class="st10" cx="513.5" cy="729.5" r="9.5"/>
<path class="st13" d="M422.5,1015.5"/>
<path class="st14" d="M797.9,1055.7c-7,0.6-13.9,1-20.7,1.3c-2.1,6.7-3.8,13.6-5.2,20.5c-0.6,2.9-1.2,5.8-1.7,8.8
	c142.2-14.1,208.6-70.6,208.6-133.6C978.9,879.8,989.2,1039.1,797.9,1055.7z"/>
<g>
	<g>
		<path class="st3" d="M919.9,1014.9c0,0,0-5,0-5C919.9,1009.9,919.9,1014.9,919.9,1014.9L919.9,1014.9z"/>
	</g>
</g>
<g>
	<g>
		<path class="st3" d="M914.1,1020.6c0,0,0-5,0-5C914.1,1015.6,914.1,1020.6,914.1,1020.6L914.1,1020.6z"/>
	</g>
</g>
<g>
	<g>
		<path class="st3" d="M910.9,1017.2c-1.8,0.2-3.4,0.9-4.8,2c-0.1,0,0,0.8,0,0.7c0,0.6,0,1.2,0,1.8c0,0.6,0,1.2,0,1.8
			c0,0.1,0,0.3,0,0.4c0,0.1,0,0.2,0,0.3c1.4-1.1,3-1.8,4.8-2c0.1,0,0-2.3,0-2.5C910.9,1019.5,910.9,1017.2,910.9,1017.2
			L910.9,1017.2z"/>
	</g>
</g>
<g>
	<g>
		<path class="st3" d="M912.2,1021.3c2.8-0.4,5.4-1.7,7.3-3.8c0.3-0.3-0.2-5,0-5c-4.3-0.1-8.5,1.7-11.3,4.9c-0.4,0.4,0.3,4.9,0,5
			c4.7-0.8,9-3,12.2-6.5c2.8-3.1,4.8-7.4,9-8.8c0-1.7,0-3.3,0-5c-2.5,2.3-5,4.6-7.5,6.9c-0.4,0.4,0.3,5,0,5c2.3-0.2,4.3-1.5,5.5-3.4
			c0.3-0.5,0-2,0-2.5c0-0.2-0.1-2.5,0-2.5c-6,2.1-10.5,7.2-15.6,10.7c-5.4,3.7-11.2,6.8-17.3,9.1c-0.2,0.1,0,2.3,0,2.5
			c0,0.2,0.1,2.5,0,2.5c4.4-1.1,8.5-3.1,12.2-5.8c0.2-0.2,0.1-4.9,0-5c-1.7-0.9-3.5-0.2-5.2,0.5c-2.1,0.9-4.3,1.9-6.4,2.9
			c-4.1,2-8.2,4.1-12.2,6.3c-0.3,0.2,0.1,5,0,5c3.4,0.4,6.8-0.5,9.5-2.7c0.2-0.2,0-2.2,0-2.5c0-0.2-0.1-2.5,0-2.5
			c-4.5,1-8.8,2.8-12.7,5.3c-0.2,0.1,0,2.2,0,2.5c0,0.2,0.1,2.5,0,2.5c5.2-1.7,10.1-3.9,14.8-6.8c0.2-0.1,0-2.2,0-2.5
			c0-0.6,0-1.2,0-1.8c0-0.2,0.1-0.6,0-0.7c-0.7-1.3-2.5-0.1-3.3,0.5c-1.6,1.1-3.2,2-4.8,3c-3.4,1.9-6.9,3.4-10.4,4.9
			c-7.3,2.9-14.7,5.6-22.2,7.8c-15.6,4.7-31.8,7.3-47.8,10.1c-4.6,0.8-9.2,1.5-13.9,1.5c-4.6,0.1-9.3-0.3-13.9-0.7c0.1,0-0.2,5,0,5
			c8.3,0.6,16.4,1,24.7-0.4c8-1.3,16.1-2.8,24.1-4.3c8-1.5,16-3.2,23.9-5.4c7.6-2.2,15.1-4.8,22.5-7.6c4-1.5,8-3.2,11.8-5.2
			c1.9-1,3.7-2,5.4-3.2c0.9-0.6,3.2-2.6,4.1-1c0-1.7,0-3.3,0-5c-4.6,2.8-9.6,5.1-14.8,6.8c0,1.7,0,3.3,0,5c3.9-2.5,8.2-4.3,12.7-5.3
			c0-1.7,0-3.3,0-5c-2.7,2.2-6.1,3.1-9.5,2.7c0,1.7,0,3.3,0,5c4-2.2,8.1-4.3,12.2-6.3c2-1,4.1-1.9,6.1-2.8c1.7-0.8,3.6-1.5,5.4-0.6
			c0-1.7,0-3.3,0-5c-3.7,2.7-7.8,4.6-12.2,5.8c0,1.7,0,3.3,0,5c6.1-2.3,12-5.4,17.3-9.1c5.1-3.6,9.6-8.6,15.6-10.7c0-1.7,0-3.3,0-5
			c-1.2,2-3.2,3.2-5.5,3.4c0,1.7,0,3.3,0,5c2.5-2.3,5-4.6,7.5-6.9c0.3-0.2,0-2.1,0-2.5c0-0.2-0.1-2.5,0-2.5c-4.2,1.4-6.2,5.7-9,8.8
			c-3.2,3.5-7.6,5.7-12.2,6.5c0,1.7,0,3.3,0,5c2.9-3.2,7-5,11.3-4.9c0-1.7,0-3.3,0-5c-2,2.1-4.5,3.4-7.3,3.8
			C911.9,1016.3,912.4,1021.3,912.2,1021.3L912.2,1021.3z"/>
	</g>
</g>
<g>
	<g>
		<path class="st3" d="M777.2,1058.3c0,0,0-5,0-5C777.1,1053.3,777.1,1058.3,777.2,1058.3L777.2,1058.3z"/>
	</g>
</g>
<g>
	<g>
		<path class="st3" d="M777.2,1056.3c0,0.7,0,1.4,0,2.1c0,0.1,0,0.2,0,0.3c0.4-0.4,0.6-0.8,0.8-1.3c0-1.7,0-3.3,0-5
			c-0.1,0.4-0.1,0.7-0.2,1.1c0,0.1,0,0.1,0,0.2c0,0.2,0,0.3,0,0.5c0,0.6,0,1.2,0,1.8c0,0.6,0,1.2,0,1.8c0,0.1,0,0.3,0,0.4
			c0,0.1,0,0.2,0,0.3c0.1-0.4,0.1-0.7,0.2-1.1c0-0.1,0-0.1,0-0.2c0-0.2,0-0.3,0-0.5c0-0.6,0-1.2,0-1.8c0-0.6,0-1.2,0-1.8
			c0-0.1,0-0.3,0-0.4c0-0.1,0-0.2,0-0.3c-0.2,0.5-0.4,0.9-0.8,1.3c0,0.1,0,0.2,0,0.3c0-0.7,0-1.4,0-2.1c0-0.1,0-0.2,0-0.3
			c0-0.1,0-0.1,0,0c0,0.4,0,0.8,0,1.1C777.2,1054,777.1,1055.2,777.2,1056.3L777.2,1056.3z"/>
	</g>
</g>
<g>
	<g>
		<path class="st15" d="M867.8,1429c1.1,2.1,1.9,4.4,2.2,6.8c0,0.3,0.1,0.6,0.1,0.9c0.2,2.3,0.2-4.7,0-2.8c-0.1,0.6-0.1,1.3-0.3,1.9
			c-0.2,1.2-0.6,2.3-1.2,3.4c-0.1,0.1,0,0.7,0,0.7c0,0.6,0,1.2,0,1.8c0,0.6,0,1.2,0,1.8c0,0.2,0.1,0.6,0,0.7
			c1.8-3.6,1.6-7.5,1.5-11.3c-0.1-3.1-0.9-6.1-2.3-8.9c0,0.1,0,0.7,0,0.7c0,0.6,0,1.2,0,1.8c0,0.6,0,1.2,0,1.8
			C867.7,1428.5,867.7,1428.9,867.8,1429L867.8,1429z"/>
	</g>
</g>
<g>
	<g>
		<path class="st16" d="M603.9,803.4c0,0,0-5,0-5C603.9,798.4,603.9,803.4,603.9,803.4L603.9,803.4z"/>
	</g>
</g>
<path class="st17" d="M970,930c9-2,18-4,27-6c36-10,70-18,103-37c15-9,36-19,33-40c-1-7-6-12-11-16c-21-16-44-23-67-37
	c-3-2-7-3-10-6c-2-2-5-3-7-5c-12-11-24-23-21-40c3-15,13-27,24-37c21-18,45-31,69.9-42.4"/>
<circle class="st18" cx="1109.5" cy="664.5" r="0.5"/>
<path class="st0" d="M911.8,1229.2c2.8-0.9-32.1,14.5-33.6-122.2c-1.5-136.6,12.4-129.9,27.9-129.9c15.5,0,28.2-6.8,28.2,129.9
	S896.3,1234.3,911.8,1229.2z"/>
<path class="st0" d="M595.3,1239.9c2.8-0.9-32.1,14.5-33.6-122.2c-1.5-136.6,12.4-129.9,27.9-129.9c15.5,0,28.2-6.8,28.2,129.9
	S579.9,1245.1,595.3,1239.9z"/>
<path class="st0" d="M918,1219c0,9.2-3.9,25-30.3,25s-33.7-2.8-33.7-12s10.6-13.6,33.7-21.3C912.8,1202.2,918,1209.8,918,1219z"/>
<path class="st0" d="M602.8,1229.8c0,9.2-3.9,25-30.3,25c-26.4,0-33.7-2.8-33.7-12s10.6-13.6,33.7-21.3
	C597.6,1213,602.8,1220.6,602.8,1229.8z"/>
<path class="st0" d="M840.8,1172.8c0,9.2-3.9,25-30.3,25c-26.4,0-33.7-2.8-33.7-12s10.6-13.6,33.7-21.3
	C835.6,1156,840.8,1163.6,840.8,1172.8z"/>
<path class="st0" d="M538.8,1181.8c0,9.2-3.9,25-30.3,25c-26.4,0-33.7-2.8-33.7-12s10.6-13.6,33.7-21.3
	C533.6,1165,538.8,1172.6,538.8,1181.8z"/>
<circle class="st10" cx="510" cy="1196" r="8"/>
<circle class="st10" cx="502" cy="1091" r="14"/>
<circle class="st10" cx="841" cy="1105" r="14"/>
<circle class="st10" cx="920" cy="1148" r="14"/>
<circle class="st10" cx="579" cy="1240" r="8"/>
<circle class="st10" cx="593" cy="1049" r="8"/>
<circle class="st10" cx="618" cy="1123" r="8"/>
<circle class="st10" cx="922" cy="1065" r="8"/>
<circle class="st10" cx="994" cy="925" r="8"/>
<circle class="st10" cx="1060" cy="904" r="8"/>
<circle class="st10" cx="1076" cy="680" r="8"/>
<circle class="st10" cx="1117" cy="876" r="8"/>
<circle class="st10" cx="1133" cy="843" r="8"/>
<circle class="st10" cx="1068" cy="801" r="8"/>
<circle class="st10" cx="1017" cy="751" r="8"/>
<circle class="st10" cx="784" cy="1030" r="14"/>
<circle class="st10" cx="875" cy="956" r="14"/>
<circle class="st10" cx="948" cy="974" r="14"/>
<circle class="st10" cx="663" cy="848" r="14"/>
<path class="st10" d="M859.5,880.3c-13.3,2.5-91.7-21.8-52.8-5.2c151,64.5,107.8-42.7-6.7-9.1c-27.4,8-7.2,22.4,22.7,26.9
	C833.8,894.6,882.1,876.1,859.5,880.3z"/>
<path class="st10" d="M699.4,981.2c-8.4-3.3-59.7,12.4-34,0.5c99.9-46,66.3,46.7-4.8,7.6c-17-9.3-3.4-20.6,16-22.3
	C683.8,966.4,713.6,986.7,699.4,981.2z"/>
<g>
	<g>
		<path class="st19" d="M1090.8,1036.3c0,0,0-5,0-5C1090.7,1031.3,1090.7,1036.3,1090.8,1036.3L1090.8,1036.3z"/>
	</g>
</g>
<path class="st20" d="M794.1,948.4c-3.9,2.3-27.7-8.8-15.8-0.4c46.4,32.7,30.8-33.2-2.2-5.4c-7.9,6.6-1.6,14.7,7.4,15.9
	C786.8,958.9,800.7,944.5,794.1,948.4z"/>
<path class="st20" d="M660,892.5c4.5-0.1,19.6,21.5,13.5,8.2c-23.9-51.5-43.3,13.3-0.8,5.8c10.2-1.8,8.7-11.9,1.5-17.5
	C671.6,887,652.4,892.6,660,892.5z"/>
<path class="st20" d="M569.6,880.9c-2.3-3.9,8.8-27.7,0.4-15.8c-32.7,46.4,33.2,30.8,5.4-2.2c-6.6-7.9-14.7-1.6-15.9,7.4
	C559,873.6,573.5,887.5,569.6,880.9z"/>
<path class="st20" d="M367.3,837.9c2.3-3.9-8.8-27.7-0.4-15.8c32.7,46.4-33.2,30.8-5.4-2.2c6.6-7.9,14.7-1.6,15.9,7.4
	C377.8,830.6,363.4,844.5,367.3,837.9z"/>
<path class="st20" d="M629.7,946.7c-0.1-4.5,21.5-19.6,8.2-13.5c-51.5,23.9,13.3,43.3,5.8,0.8c-1.8-10.2-11.9-8.7-17.5-1.5
	C624.2,935.1,629.8,954.3,629.7,946.7z"/>
<path class="st20" d="M741.6,908.6c2.2-4,28.4-6.3,13.9-7.6c-56.6-5.1-10.1,44.2,4.6,3.6c3.5-9.7-6-13.5-14.4-10
	C742.7,895.9,737.9,915.3,741.6,908.6z"/>
<path class="st20" d="M552.8,968.1c3.9,2.3,27.7-8.8,15.8-0.4c-46.4,32.7-30.8-33.2,2.2-5.4c7.9,6.6,1.6,14.7-7.4,15.9
	C560,978.6,546.2,964.2,552.8,968.1z"/>
<path class="st21" d="M725.8,856.7c5.9-2.5,14.4,30.6,13.2,8.6c-4.4-85.3-63.1,47.6-4,11.4c14.1-8.7,17.4-27,11-33.9
	C743.7,840.4,715.8,860.9,725.8,856.7z"/>
</svg>
