<?xml version="1.0" encoding="utf-8"?>
<!-- Generator: Adobe Illustrator 24.0.2, SVG Export Plug-In . SVG Version: 6.00 Build 0)  -->
<svg version="1.1" id="Layer_1" xmlns="http://www.w3.org/2000/svg" xmlns:xlink="http://www.w3.org/1999/xlink" x="0px" y="0px"
	 viewBox="0 0 768.1 388.9" style="enable-background:new 0 0 768.1 388.9;" xml:space="preserve">
<style type="text/css">
	.st0{fill:#248D9B;}
	.st1{fill:#5D67B0;}
	.st2{fill:#244A5B;}
	.st3{fill:#2D2D2D;}
	.st4{opacity:0.4;fill:#FFFFFF;enable-background:new    ;}
	.st5{fill:#FFFFFF;}
	.st6{fill:#092A38;}
	.st7{fill:#1A353F;}
</style>
<g>
	<g>
		<path class="st0" d="M409.7,225.6c-3.7,0-7-2.1-8.2-5.5c-1.4-4.1,1.1-8.5,5.6-9.8c0.3-0.1,30-8.9,42-31.2
			c6.6-12.2,6.8-26.6,0.4-42.7c-24.2-61.1-153.3-36.9-154.6-36.7c-4.6,0.9-9.2-1.8-10.2-6s2-8.4,6.6-9.3
			c5.9-1.1,145.1-27.1,174.3,46.7c8.1,20.3,7.7,38.9-1.2,55.1c-15.4,28.2-50.7,38.6-52.2,39C411.4,225.5,410.5,225.6,409.7,225.6z"
			/>
		<path class="st1" d="M363.1,95.1c-15.9-0.8-32.7-1.8-48.5,0.1c-8.3,0.9-16.3,2.5-24.4,4.3c1.5,0.5,3.1,0.6,4.7,0.3
			c0.7-0.1,33.8-6.3,69.5-4.6C364,95.1,363.5,95.1,363.1,95.1z"/>
		<path class="st2" d="M465.7,131.1c-2.7-6.7-6.3-12.6-10.6-17.8c0.3,2.7,0.4,5.6,0.1,8.5c-0.2,2.2-3,3.5-4.9,1.8
			c-14-12.6-33-20.1-52.7-24.3c23.3,5.4,43.7,16.3,51.9,37c6.4,16.1,6.3,30.5-0.4,42.7c-12,22.2-41.8,31.1-42,31.2
			c-4.5,1.3-7,5.7-5.6,9.8c1.1,3.3,4.5,5.5,8.2,5.5c0.8,0,1.7-0.1,2.6-0.4c1.5-0.4,36.9-10.8,52.2-39
			C473.3,170,473.7,151.5,465.7,131.1z"/>
		<path class="st3" d="M409.7,227.6c-4.7,0-8.8-2.7-10.2-6.8c-1.8-5.1,1.4-10.6,7-12.2c0.3-0.1,29.2-8.8,40.8-30.2
			c6.4-11.7,6.4-25.6,0.3-41.2c-13.2-33.3-59.4-40.3-95.8-40.3c-30.3,0-56.1,4.8-56.4,4.9c-5.6,1.1-11.5-2.4-12.7-7.5
			c-0.6-2.6-0.1-5.2,1.5-7.3c1.6-2.2,4-3.7,6.8-4.2c1.1-0.2,28.1-5.4,60.5-5.4c43.4,0,98.9,9.2,116.3,53.3
			c8.3,20.8,7.8,39.9-1.3,56.6c-15.8,29-52,39.6-53.5,40C411.8,227.4,410.8,227.6,409.7,227.6z M351.7,92.9
			c37.8,0,85.8,7.4,99.8,42.9c6.6,16.6,6.4,31.5-0.5,44.3c-12.5,23-43,32.1-43.3,32.1c-3.4,1-5.3,4.3-4.2,7.4c1,3,4.7,4.8,8.1,3.8
			c1.5-0.4,36-10.5,51-38c8.6-15.7,8.9-33.7,1.1-53.5c-16.7-42-70.3-50.8-112.4-50.8c-31.9,0-58.5,5.1-59.6,5.3
			c-1.7,0.3-3.1,1.2-4.1,2.5c-0.9,1.3-1.2,2.9-0.9,4.4c0.7,3.1,4.2,5.2,7.6,4.5C294.7,97.8,320.5,92.9,351.7,92.9z"/>
	</g>
	<g>
		<polygon class="st0" points="212.3,215.2 109.3,135.1 99.2,152.1 214.4,262.1 		"/>
		<path class="st3" d="M214.4,264c-0.6,0-1.1-0.2-1.6-0.6L97.7,153.5c-0.6-0.6-0.8-1.5-0.3-2.3l10.1-17c0.3-0.5,0.9-0.9,1.5-1
			c0.7-0.1,1.3,0.1,1.8,0.4l103,80.1c0.4,0.4,0.7,0.9,0.7,1.4l2.1,46.9c0,0.8-0.5,1.6-1.3,1.9C215,264,214.7,264,214.4,264z
			 M101.9,151.8L212,257l-1.9-40.8l-100.3-78L101.9,151.8z"/>
	</g>
	<path class="st2" d="M175.5,195.6c16.4,19.1,27.5,41.3,36.3,64l2.6,2.5l-2.1-46.9l-80.7-62.7C146,167,162.3,180.1,175.5,195.6z"/>
	<path class="st4" d="M149,193.5c-8.5-8.6-19.9-17.4-26.4-27.4c-5.6-8.7-3.8-16.4-3.2-25.4l-7.2-5.6l-10.1,17l105.2,100.4
		C188.2,232.7,168.4,213.2,149,193.5z"/>
	<g>
		<path class="st0" d="M103.8,156.6c0,0-35.3,12.6-56.7,4.3c-8.9-3.4,60.6-80.7,69.6-72.9S132.4,148.8,103.8,156.6z"/>
		<path class="st2" d="M116.7,88c-0.5-0.5-1.3-0.6-2.2-0.5c4.3,36.3-22,72.6-63.3,74.7c21.6,5.5,52.6-5.6,52.6-5.6
			C132.4,148.8,125.7,95.8,116.7,88z"/>
		<path class="st3" d="M64.7,165.7c-7.2,0-13.4-1-18.5-3c-0.8-0.3-2.6-1.4-1.9-4.5C47,146,100,85.5,115,85.5c1.6,0,2.6,0.6,3.2,1.1
			c6.8,5.9,11.2,30.6,6.5,48.7c-3.2,12.4-10.2,20.5-20.2,23.2C103.8,158.7,84,165.7,64.7,165.7z M48.4,159.3
			c4.5,1.6,10,2.5,16.3,2.5c18.4,0,38.1-6.9,38.3-7c10.8-2.9,15.4-12.7,17.4-20.4c4.6-17.6,0-40.5-5.2-44.9l0,0
			c-4.7,0-20,11.8-40.5,34.4C56.7,143.5,48.6,156.3,48.4,159.3z"/>
	</g>
	<g>
		<path class="st5" d="M87.1,132.7c6.9-6.5,33-32.7,28.2-45.2c-11.8-1.3-65.5,57.6-68.9,70.9C61.9,153.1,76.1,142.9,87.1,132.7z"/>
		<path class="st3" d="M46.5,160.3c-0.5,0-1-0.2-1.4-0.5c-0.6-0.5-0.9-1.2-0.7-1.9c3.3-13.3,55.9-72.4,70.6-72.4c0.1,0,0.6,0,0.7,0
			c0.8,0.1,1.5,0.6,1.8,1.3c5.6,14.7-25.2,43.9-28.7,47.2c-9.3,8.6-24,20.2-41.4,26.1C47,160.3,46.7,160.3,46.5,160.3z M113.7,89.7
			c-11.8,3.7-54.1,47.5-63.5,65.2c14.7-6,27.2-15.9,35.4-23.5C98,119.8,115,99.7,113.7,89.7z"/>
	</g>
	<g>
		<path class="st0" d="M194.4,169.6L218,304.4c0,0,2.1,26.7,24.3,29.3c0,0,59.4,7.2,114.4,3.9c0,0,36.5,0.7,40.8-13
			s22.2-140,22.2-140s9.1-22-11.6-22.7H304.7c0,0-6.6,1.3-4.5-17c2.1-18.2,2.1-49.5,2.1-49.5s2.9-15-12.2-11.7
			C275.2,86.9,195.1,107.1,194.4,169.6z"/>
		<path class="st6" d="M289.7,144.8c-3.6,12.5-6.2,31,15.6,24.2c9-2.8,18-5.2,27.1-7.2h-27.6c0,0-6.6,1.3-4.5-17
			c1.1-9.7,1.7-23.1,1.9-33.5c-1,2.6-2,5.1-3.1,7.5C295.4,127.2,292.2,136,289.7,144.8z"/>
		<path class="st3" d="M326.1,340.4L326.1,340.4c-44,0-83.7-4.7-84.1-4.8c-23.6-2.8-26.2-30.8-26.2-31.1l-23.6-134.6
			c0.7-64,81.3-84.7,97.5-88.2c5.5-1.2,9.6-0.3,12.2,2.5c3.9,4.2,2.6,11.2,2.5,11.4l0,0c0,0,0,31.2-2.1,49.4
			c-1.2,10.4,0.6,13.6,1.4,14.4c0.4,0.4,0.7,0.4,0.7,0.4h103.7c6.1,0.2,10.5,2.1,13.1,5.7c5.4,7.4,0.7,19.2,0.5,19.7
			c-0.6,4.7-17.8,126.2-22.1,139.8c-4.2,13.4-33.2,14.4-42,14.4h-0.8C347.3,340.1,337,340.4,326.1,340.4z M294.2,85.1
			c-1,0-2.2,0.1-3.4,0.4c-15.6,3.4-93.5,23.3-94.2,84.1l23.6,134.5c0,0.4,2.3,25.3,22.5,27.7c0.4,0.1,39.8,4.7,83.5,4.7l0,0
			c10.7,0,21-0.3,30.5-0.8h0.9c12.7,0,35-2.4,37.9-11.6c4.2-13.4,21.9-138.4,22.1-139.7c0.2-0.5,4.3-10.9,0.1-16.6
			c-1.8-2.5-5-3.8-9.6-3.9H304.7c-1.1,0-2.7-0.2-4.1-1.7c-2.7-2.8-3.6-8.5-2.5-17.5c2.1-17.9,2.1-49,2.1-49.3
			c0.3-1.9,0.6-6.3-1.6-8.6C297.7,85.7,296.2,85.1,294.2,85.1z"/>
	</g>
	<path class="st4" d="M241.7,324.5c-10.3-11.1-11.4-26.3-14-40.2c-3.6-19.5-6.6-39-9.4-58.6c-3-20.9-6.6-42-7.6-63.1
		c-0.7-14.3,2.2-26.6,12.9-37.3c13.2-13.1,29.1-24.6,46.6-32.3c6.7-2.9,13.7-5.2,20.7-7.2c-0.9,0.1-1.8,0.2-2.8,0.4
		c-14.4,3.2-91.1,23-91.7,84.4L219,302.9c0,0,2.1,26.2,23.3,28.8c0,0,4.3,0.5,11.6,1.2C249.3,330.9,245.1,328.2,241.7,324.5z"/>
	<path class="st2" d="M408.1,161.8h-27.9c3.5,1.6,6.6,3.6,9.2,6.1c5.4,5.3,5.6,14.6,5.2,21.2c-1,13.3-2.4,26.6-3.8,39.8
		c-2.9,28.8-6.4,57.5-9.9,86.2c-1,8.3-3.5,15.7-8,21.3c10.3-1.4,22.2-4.5,24.6-12c4.3-13.7,22.2-140,22.2-140
		S428.8,162.5,408.1,161.8z"/>
</g>
<path class="st4" d="M319.9,85.2c0,0,86.9-12,132,31.3C451.9,116.4,404.7,80.6,319.9,85.2z"/>
<path class="st7" d="M103.1,102.1c-1.3,1.7-2.9,2.8-3.5,2.5c-0.6-0.4,0-2.1,1.4-3.8c1.3-1.7,2.9-2.8,3.5-2.5
	C105,98.6,104.4,100.4,103.1,102.1z"/>
<path class="st7" d="M65.4,142.4c-1.5,1.7-3.1,2.7-3.7,2.2c-0.6-0.4,0.2-2.1,1.6-3.7c1.5-1.7,3.1-2.7,3.7-2.3
	C67.6,139.1,66.8,140.8,65.4,142.4z"/>
<path class="st7" d="M77.3,134.7c-1.5,1.7-3.1,2.7-3.7,2.2c-0.6-0.4,0.2-2.1,1.6-3.7c1.5-1.7,3.1-2.7,3.7-2.2
	C79.5,131.3,78.8,133,77.3,134.7z"/>
<path class="st7" d="M96.7,116.5c-1.5,1.7-3.1,2.7-3.7,2.2c-0.6-0.4,0.2-2.1,1.6-3.7c1.5-1.7,3.1-2.7,3.7-2.2
	C98.9,113.2,98.2,114.9,96.7,116.5z"/>
<path class="st7" d="M84,120.7c-1.5,1.7-3.1,2.6-3.7,2.2s0.2-2.1,1.7-3.7s3.1-2.6,3.7-2.2C86.2,117.4,85.4,119.1,84,120.7z"/>
</svg>
